<mxfile host="app.diagrams.net" modified="2023-04-23T08:35:43.025Z" agent="Mozilla/5.0 (Windows NT 10.0; Win64; x64) AppleWebKit/537.36 (KHTML, like Gecko) Chrome/112.0.0.0 Safari/537.36 Edg/112.0.1722.48" version="21.1.1" etag="XVpLem1WzTtBKJsz_7Sl" type="github">
  <diagram name="第 1 页" id="UZ4egAG0o7tEr1WiE8b2">
    <mxGraphModel>
      <root>
        <mxCell id="0" />
        <mxCell id="1" parent="0" />
      </root>
    </mxGraphModel>
  </diagram>
</mxfile>
